{"glyphs":{":":{"x_min":0,"x_max":303,"ha":303,"o":"m 150 372 q 132 372 125 380 q 117 387 117 405 q 117 430 127 442 q 136 454 156 454 q 174 454 181 446 q 189 438 189 420 q 189 396 179 384 q 170 372 150 372 z m 105 -7 q 87 -7 80 1 q 72 8 72 26 q 72 51 81 63 q 91 75 111 75 q 129 75 136 67 q 144 59 144 41 q 144 17 135 5 q 125 -7 105 -7 z"},"$":{"x_min":0,"x_max":560,"ha":560,"o":"m 274 22 q 330 38 364 81 q 398 125 398 179 q 398 221 376 250 q 354 279 308 297 z m 255 380 l 295 361 l 330 646 l 319 646 q 306 646 299 646 q 293 645 287 644 z m 234 388 l 266 640 q 218 621 193 585 q 167 548 167 500 q 167 460 183 433 q 199 407 234 388 z m 210 17 q 212 17 216 16 q 219 16 226 16 q 231 16 236 16 q 242 17 253 18 l 288 305 l 247 322 z m 175 -96 l 187 -3 q 153 0 121 9 q 89 19 59 34 q 64 84 68 116 q 71 148 73 175 l 90 175 q 88 155 88 143 q 87 131 87 126 q 87 84 111 59 q 134 34 189 19 l 227 330 q 166 353 137 387 q 109 420 109 470 q 109 536 153 589 q 197 642 268 659 l 280 761 l 302 761 l 290 663 q 299 665 310 665 q 320 666 332 666 l 344 761 l 365 761 l 353 666 q 384 665 413 657 q 441 650 467 635 q 461 602 458 571 q 455 540 453 509 l 437 509 q 438 519 439 527 q 440 536 440 544 q 440 584 419 609 q 397 633 351 646 l 315 355 q 393 326 424 291 q 456 256 456 201 q 456 129 407 76 q 358 23 272 1 l 260 -96 l 239 -96 l 250 -3 q 242 -3 233 -4 q 224 -4 208 -4 l 197 -96 z"},"?":{"x_min":0,"x_max":514,"ha":514,"o":"m 197 161 q 179 173 170 192 q 161 210 161 236 q 161 272 180 310 q 199 347 246 399 q 255 409 272 428 q 370 534 370 610 q 370 654 342 681 q 313 708 268 708 q 220 708 192 679 q 164 650 159 596 q 149 604 140 615 q 130 625 117 641 q 146 684 187 707 q 229 729 280 729 q 349 729 390 691 q 431 654 431 591 q 431 503 303 387 q 288 373 280 366 q 228 319 209 290 q 191 261 191 232 q 191 209 196 197 q 202 184 213 177 z m 190 -7 q 173 -7 166 1 q 158 8 158 25 q 158 48 168 59 q 177 71 196 71 q 213 71 221 63 q 228 56 228 39 q 228 16 219 5 q 209 -7 190 -7 z"},"<":{"x_min":0,"x_max":833,"ha":833,"o":"m 704 554 l 704 501 l 205 298 l 704 96 l 704 43 l 129 278 l 129 318 z"},"'":{"x_min":0,"x_max":169,"ha":169,"o":"m 92 424 l 77 424 l 47 646 q 47 647 47 648 q 45 660 45 666 q 45 689 55 701 q 65 714 84 714 q 103 714 113 702 q 123 690 123 667 q 123 659 123 655 q 123 650 122 646 z"},"=":{"x_min":0,"x_max":833,"ha":833,"o":"m 124 231 l 709 231 l 709 183 l 124 183 z m 124 413 l 709 413 l 709 365 l 124 365 z"},"a":{"x_min":0,"x_max":488,"ha":488,"o":"m 296 261 l 313 369 q 316 389 318 404 q 320 418 320 425 q 320 448 313 456 q 306 465 287 465 q 255 465 226 447 q 196 429 166 391 q 126 342 102 261 q 78 179 78 90 q 78 55 90 39 q 102 23 128 23 q 147 23 169 33 q 190 43 213 63 q 245 90 263 131 q 282 171 296 261 z m 273 97 q 229 43 175 15 q 121 -14 66 -14 q 34 -14 20 3 q 7 21 7 62 q 7 148 34 234 q 61 319 105 371 q 151 425 201 456 q 251 486 295 486 q 307 486 319 484 q 332 481 344 477 q 355 479 370 482 q 384 485 404 491 q 391 462 377 403 q 364 343 349 250 q 340 190 335 148 q 331 105 331 81 q 331 50 338 39 q 345 28 362 28 q 372 28 384 32 q 395 37 411 46 l 418 32 q 383 10 353 -2 q 323 -14 304 -14 q 285 -14 277 -3 q 268 8 268 32 q 268 44 269 60 q 271 76 273 97 z"},"L":{"x_min":0,"x_max":528,"ha":528,"o":"m 360 715 l 358 699 l 260 693 q 231 601 208 424 q 186 248 176 32 q 200 28 221 26 q 241 24 259 24 q 302 24 336 28 q 371 33 395 41 q 418 49 435 78 q 453 106 469 162 l 482 162 q 474 108 468 69 q 463 30 459 -2 q 396 1 335 2 q 274 4 213 4 q 159 4 111 3 q 64 2 21 0 l 23 16 l 95 22 q 134 234 155 407 q 177 581 177 674 l 177 693 l 107 699 l 109 715 q 136 713 166 712 q 196 711 231 711 q 267 711 299 712 q 331 713 360 715 z"},"3":{"x_min":0,"x_max":560,"ha":560,"o":"m 38 126 q 44 70 80 41 q 117 12 180 12 q 259 12 318 75 q 376 138 376 223 q 376 284 344 319 q 311 353 253 353 q 241 353 226 352 q 211 350 193 347 l 193 367 q 284 378 332 422 q 380 466 380 537 q 380 584 354 612 q 329 639 285 639 q 257 639 233 629 q 209 618 190 598 l 175 607 q 206 641 242 658 q 278 676 317 676 q 376 676 410 646 q 444 616 444 565 q 444 511 409 464 q 374 417 309 386 q 376 381 410 349 q 444 316 444 257 q 444 210 420 162 q 396 113 351 71 q 305 28 251 7 q 198 -14 135 -14 q 108 -14 84 -7 q 59 0 37 15 q 35 40 31 66 q 27 92 22 121 z"},";":{"x_min":0,"x_max":303,"ha":303,"o":"m 140 277 q 123 277 115 285 q 107 292 107 310 q 107 335 116 347 q 126 359 146 359 q 164 359 171 351 q 179 343 179 325 q 179 300 169 289 q 160 277 140 277 z m 80 75 l 151 75 q 141 32 108 -29 q 76 -89 23 -165 l 8 -165 q 32 -110 50 -51 q 68 9 80 75 z"},"J":{"x_min":0,"x_max":368,"ha":368,"o":"m 205 693 l 108 699 l 109 715 q 137 713 168 712 q 198 711 233 711 q 268 711 298 712 q 328 713 355 715 l 353 699 l 288 693 q 279 671 272 639 q 265 608 258 562 q 245 476 225 338 q 194 131 187 103 q 161 7 104 -47 q 48 -102 -24 -102 q -35 -102 -45 -100 q -54 -99 -63 -95 l -59 -34 l -49 -34 l -49 -48 q -39 -62 -26 -69 q -13 -76 3 -76 q 58 -76 93 -3 q 129 69 159 247 q 181 383 193 493 q 205 603 205 670 z"},"V":{"x_min":0,"x_max":597,"ha":597,"o":"m 198 -14 q 181 222 156 406 q 132 590 105 691 l 31 697 l 33 715 q 58 712 86 711 q 114 710 150 710 q 186 710 214 711 q 243 712 269 715 l 267 697 l 189 691 l 189 682 q 189 586 204 444 q 220 301 249 124 q 350 284 423 427 q 497 569 541 691 l 461 697 l 462 715 q 484 712 509 711 q 533 710 565 710 q 596 710 620 711 q 645 712 667 715 l 665 697 l 606 691 q 578 651 523 555 q 513 535 507 525 l 400 334 l 366 272 q 243 55 218 -7 z"},"\"":{"x_min":0,"x_max":328,"ha":328,"o":"m 251 424 l 236 424 l 206 646 q 205 655 204 659 q 204 663 204 667 q 204 689 214 702 q 225 714 244 714 q 263 714 273 701 q 283 689 283 666 q 283 660 281 648 q 281 647 281 646 z m 92 424 l 77 424 l 47 646 q 47 647 47 648 q 45 660 45 666 q 45 689 55 701 q 65 714 84 714 q 103 714 114 702 q 124 689 124 667 q 124 662 123 649 q 122 647 122 646 z"},"7":{"x_min":0,"x_max":560,"ha":560,"o":"m 458 615 q 342 613 254 608 q 166 603 102 593 q 111 611 116 629 q 122 647 125 666 q 178 664 236 663 q 293 662 358 662 q 425 662 459 663 q 492 663 521 664 l 522 657 q 502 633 479 593 q 456 554 421 486 l 331 310 q 281 212 247 132 q 213 53 199 0 l 119 0 q 189 109 244 204 q 300 299 333 366 z"},"S":{"x_min":0,"x_max":537,"ha":537,"o":"m 55 180 q 54 154 53 139 q 52 123 52 116 q 52 64 82 40 q 113 16 178 16 q 269 16 325 68 q 381 120 381 204 q 381 245 363 278 q 345 312 313 332 q 289 348 233 376 q 177 405 160 425 q 145 444 137 467 q 129 490 129 517 q 129 606 201 669 q 273 732 379 732 q 402 732 426 727 q 449 723 473 713 q 465 679 460 647 q 455 616 451 584 l 437 584 q 438 602 439 613 q 440 625 440 631 q 440 668 415 687 q 391 705 342 705 q 274 705 232 663 q 189 620 189 552 q 189 507 210 475 q 232 442 277 418 q 295 408 329 393 q 386 365 401 350 q 422 329 433 303 q 444 277 444 248 q 444 202 424 157 q 403 112 365 74 q 321 30 261 6 q 201 -18 133 -18 q 96 -18 66 -9 q 37 0 15 17 q 25 52 31 93 q 37 133 38 180 z"},"}":{"x_min":0,"x_max":500,"ha":500,"o":"m 87 740 l 92 740 q 197 740 237 704 q 276 668 276 571 l 276 465 q 276 388 304 360 q 333 332 414 324 l 414 297 q 333 291 305 261 q 276 232 276 156 l 276 50 q 276 -47 237 -83 q 197 -119 92 -119 l 87 -119 l 87 -95 q 160 -94 186 -68 q 212 -42 212 33 l 212 104 q 212 214 242 255 q 273 295 356 310 q 273 325 242 365 q 212 406 212 516 l 212 587 q 212 663 186 689 q 160 715 87 716 z"},"Z":{"x_min":0,"x_max":662,"ha":662,"o":"m 8 0 l 4 10 q 214 270 322 411 q 429 553 516 678 q 479 683 441 685 q 402 687 361 687 l 285 687 q 188 687 153 662 q 118 637 108 568 l 90 569 q 98 612 102 647 q 106 682 108 715 q 159 712 215 711 q 271 710 342 710 q 398 710 463 712 q 528 713 614 717 l 618 706 q 584 663 516 576 q 236 223 110 41 q 158 35 195 32 q 231 29 254 29 l 347 29 q 427 29 464 37 q 501 45 520 64 q 535 80 546 105 q 557 131 572 203 l 593 201 q 583 153 575 102 q 567 51 563 -3 q 498 0 429 2 q 361 4 287 4 q 203 4 135 3 q 67 2 8 0 z"},"x":{"x_min":0,"x_max":424,"ha":424,"o":"m -55 0 l -53 14 l 2 20 q 21 41 44 69 q 68 98 100 142 l 167 233 q 139 322 120 373 q 101 424 84 455 l 27 458 l 29 472 q 50 471 71 470 q 93 469 115 469 q 138 469 160 470 q 183 471 205 472 l 203 458 l 158 455 q 167 413 180 371 q 192 329 207 287 l 241 330 q 267 364 286 395 q 305 426 319 455 l 266 458 l 268 472 q 280 472 295 471 q 310 471 340 471 q 372 471 388 471 q 405 472 419 472 l 418 458 l 370 455 q 340 428 291 364 l 284 356 l 216 266 q 234 202 257 141 q 279 80 307 20 l 369 14 l 367 0 l 364 0 q 297 2 266 2 q 248 2 228 1 q 208 1 176 0 l 178 14 l 233 20 q 229 44 222 68 q 216 92 208 116 l 175 212 l 134 156 l 126 145 q 64 62 51 20 l 105 14 l 103 0 q 74 1 57 1 q 41 2 26 2 q 1 2 -52 0 z"},")":{"x_min":0,"x_max":370,"ha":370,"o":"m 101 729 q 170 711 212 631 q 253 550 253 428 q 253 292 216 171 q 179 50 117 -21 q 90 -52 57 -71 q 24 -91 -9 -96 l -9 -79 q 22 -71 48 -50 q 74 -28 95 7 q 143 86 171 210 q 199 333 199 470 q 199 573 175 633 q 150 693 101 710 z"},"&":{"x_min":0,"x_max":794,"ha":794,"o":"m 557 296 q 552 342 517 371 q 482 400 434 400 q 407 400 390 385 q 373 371 373 348 q 373 321 399 309 q 425 296 482 296 z m 580 239 q 574 124 491 53 q 409 -17 279 -17 q 171 -17 110 33 q 49 83 49 172 q 49 259 101 320 q 152 380 242 396 q 209 413 192 439 q 175 466 175 499 q 175 562 224 604 q 273 647 347 647 q 394 647 418 634 q 443 622 443 598 q 443 594 441 591 q 440 588 438 588 l 424 588 q 399 588 393 591 q 386 593 386 601 q 386 603 387 605 q 387 608 387 609 q 387 618 378 624 q 370 630 355 630 q 304 630 270 583 q 236 536 236 464 q 236 444 241 429 q 246 413 257 401 q 274 405 288 407 q 302 409 313 409 q 325 409 329 406 q 333 404 333 399 q 333 385 327 374 q 321 363 313 363 q 293 363 279 368 q 264 373 253 383 q 191 368 154 312 q 117 256 117 178 q 117 96 167 50 q 216 4 304 4 q 408 4 476 68 q 545 132 556 239 l 499 239 q 420 239 385 261 q 349 284 349 333 q 349 372 372 393 q 396 415 437 415 q 492 415 531 382 q 570 349 577 296 l 656 296 q 738 296 758 286 q 777 277 777 251 q 777 242 772 202 q 771 188 770 179 l 754 179 q 755 188 756 195 q 757 202 757 208 q 757 227 745 233 q 734 239 688 239 z"},"_":{"x_min":0,"x_max":500,"ha":500,"o":"m 0 -187 l 500 -187 l 500 -236 l 0 -236 z"},"v":{"x_min":0,"x_max":431,"ha":431,"o":"m 115 -14 l 115 1 q 115 104 105 205 q 95 305 75 399 q 70 423 64 431 q 59 440 48 440 q 46 440 43 439 q 40 439 38 439 l 2 435 l -2 451 q 27 455 74 462 q 122 470 139 472 q 139 466 138 456 q 138 446 138 422 q 138 372 145 296 q 152 221 170 86 q 255 201 298 278 q 341 354 341 390 q 341 409 332 423 q 324 437 307 446 l 344 478 q 346 479 351 481 q 356 482 363 482 q 381 482 392 469 q 404 457 404 437 q 404 400 336 299 q 320 274 311 261 l 296 238 q 173 49 170 3 z"},"O":{"x_min":0,"x_max":697,"ha":697,"o":"m 117 263 q 117 140 165 75 q 213 10 304 10 q 368 10 421 47 q 474 85 507 154 q 541 223 558 301 q 576 379 576 456 q 576 574 529 639 q 481 703 394 703 q 339 703 295 680 q 250 658 214 611 q 171 557 144 461 q 117 366 117 263 z m 649 483 q 649 371 611 263 q 574 156 511 88 q 463 36 402 10 q 340 -17 267 -17 q 157 -17 102 47 q 46 111 46 238 q 46 336 74 430 q 103 523 153 592 q 203 660 272 695 q 342 730 426 730 q 536 730 593 667 q 649 605 649 483 z"},"(":{"x_min":0,"x_max":370,"ha":370,"o":"m 255 -96 q 186 -79 145 2 q 104 83 104 205 q 104 341 141 462 q 178 583 240 655 q 267 686 299 705 q 332 724 366 729 l 366 712 q 335 704 309 683 q 282 661 261 626 q 213 547 186 424 q 158 301 158 163 q 158 59 182 -1 q 207 -61 255 -77 z"},"C":{"x_min":0,"x_max":579,"ha":579,"o":"m 527 602 l 513 602 l 515 625 l 515 631 q 515 662 484 678 q 453 694 394 694 q 272 694 195 574 q 117 454 117 262 q 117 139 162 75 q 208 11 295 11 q 342 11 392 30 q 442 49 492 85 l 494 65 l 482 55 q 444 23 381 3 q 318 -18 255 -18 q 152 -18 99 43 q 45 104 45 223 q 45 332 78 430 q 112 529 172 598 q 225 659 295 693 q 366 728 436 728 q 467 728 496 722 q 525 715 553 702 q 542 680 536 655 q 529 630 527 602 z"},"W":{"x_min":0,"x_max":1000,"ha":1000,"o":"m 199 -16 q 182 221 160 404 q 138 588 114 691 l 34 697 l 35 715 q 62 713 91 712 q 120 711 154 711 q 189 711 220 712 q 251 713 280 715 l 278 697 l 197 691 l 197 670 q 197 577 209 435 q 222 292 245 121 q 371 337 451 487 q 530 636 565 721 l 578 721 q 593 612 624 470 q 654 328 709 112 q 854 449 892 551 q 929 652 929 688 l 929 691 l 836 697 l 838 715 q 861 712 888 711 q 914 710 947 710 q 981 710 1008 711 q 1035 712 1059 715 l 1057 697 l 993 691 q 889 478 812 297 q 736 117 697 -6 l 672 -16 q 656 89 623 237 q 590 385 537 590 q 375 318 301 174 q 226 30 226 -9 z"},"A":{"x_min":0,"x_max":719,"ha":719,"o":"m -52 0 l -50 16 l 15 22 q 56 63 164 252 q 271 441 420 731 l 441 733 q 482 478 523 285 q 565 93 593 22 l 660 16 l 658 0 q 631 2 603 3 q 574 4 540 4 q 506 4 477 3 q 447 2 419 0 l 421 16 l 501 22 q 501 25 502 31 q 502 36 502 47 q 502 88 492 158 q 481 228 462 320 q 443 320 419 321 q 396 321 348 321 q 300 321 275 321 q 251 320 230 320 l 166 192 l 160 179 q 111 80 97 22 l 167 16 l 165 0 q 141 2 114 3 q 87 4 57 4 q 26 4 -1 3 q -27 2 -52 0 z m 244 343 q 263 342 284 342 q 306 342 349 342 q 394 342 416 342 q 438 342 458 343 q 446 400 432 466 q 417 531 396 619 q 356 553 318 484 q 280 415 244 343 z"},"f":{"x_min":0,"x_max":280,"ha":280,"o":"m 106 432 l 12 432 l 28 449 l 109 449 q 121 528 129 568 q 138 608 148 629 q 157 646 171 666 q 186 685 205 705 q 245 746 279 762 q 312 779 356 779 l 371 779 l 360 717 l 354 713 q 331 719 313 722 q 296 725 284 725 q 257 725 244 715 q 230 705 218 677 q 209 656 199 603 q 189 550 175 449 l 294 449 l 280 432 l 173 432 l 153 291 q 108 -31 53 -159 q -2 -286 -90 -286 l -94 -286 l -90 -234 l -85 -227 q -81 -228 -74 -229 q -55 -231 -48 -231 q -20 -231 -6 -219 q 9 -208 22 -171 q 31 -146 42 -79 q 52 -13 77 190 z"},"Q":{"x_min":0,"x_max":697,"ha":697,"o":"m 415 44 l 389 80 q 379 94 371 99 q 363 105 355 105 q 348 105 340 103 q 331 101 317 95 l 312 109 q 344 124 363 131 q 382 138 391 138 q 415 138 432 114 q 433 112 434 111 l 457 80 q 511 142 544 243 q 576 345 576 456 q 576 573 529 638 q 481 702 394 702 q 339 702 295 680 q 250 657 214 611 q 171 557 144 461 q 117 366 117 263 q 117 140 165 75 q 213 10 305 10 q 335 10 362 18 q 390 27 415 44 z m 428 23 q 390 3 350 -7 q 309 -17 266 -17 q 157 -17 101 47 q 46 111 46 238 q 46 336 74 430 q 103 523 153 592 q 203 660 272 695 q 342 730 426 730 q 535 730 591 668 q 648 607 648 489 q 648 354 602 239 q 557 124 477 56 l 535 -25 q 573 -77 591 -93 q 608 -109 624 -109 q 628 -109 636 -105 q 643 -101 659 -90 l 670 -102 q 640 -127 617 -139 q 594 -151 575 -151 q 542 -151 490 -72 l 488 -69 z"},"w":{"x_min":0,"x_max":667,"ha":667,"o":"m 95 -14 q 99 31 101 71 q 103 110 103 145 q 103 233 98 307 q 93 380 86 407 q 82 424 76 430 q 70 437 58 437 l 52 437 l 15 433 l 14 449 q 48 451 81 458 q 115 465 150 477 q 149 453 148 426 q 148 399 148 352 q 148 311 150 250 q 153 189 158 92 q 201 186 244 274 q 287 362 331 448 q 342 451 354 456 q 367 461 390 472 q 390 470 389 465 q 389 460 389 447 q 389 394 401 301 q 412 208 434 87 q 513 227 541 291 q 570 355 570 386 q 570 408 558 426 q 545 444 537 444 q 536 444 536 443 l 536 442 l 572 471 q 578 475 584 478 q 591 480 597 480 q 613 480 625 467 q 636 455 636 437 q 636 413 576 307 q 552 265 539 240 l 533 229 q 442 62 434 -1 l 382 -14 q 376 94 362 195 q 348 296 325 391 q 231 211 194 127 q 158 42 152 -3 z"},"-":{"x_min":0,"x_max":338,"ha":338,"o":"m 21 216 l 32 267 q 48 264 67 263 q 87 262 132 262 q 182 262 215 263 q 248 264 272 267 l 261 216 q 225 220 198 221 q 172 223 149 223 q 105 223 76 221 q 46 220 21 216 z"},"E":{"x_min":0,"x_max":588,"ha":588,"o":"m 22 0 l 24 16 l 95 22 q 134 234 155 407 q 177 581 177 674 l 177 693 l 107 699 l 109 715 q 124 714 153 713 q 248 710 296 710 q 348 710 454 713 q 490 714 509 715 q 505 679 502 648 q 499 617 497 590 l 485 590 l 485 598 q 485 654 456 674 q 427 695 339 695 q 318 695 269 693 q 262 693 259 693 q 248 665 237 602 q 226 539 207 387 q 225 387 242 386 q 260 386 286 386 q 339 386 363 388 q 388 391 396 396 q 406 403 415 423 q 423 443 431 477 l 446 477 q 437 429 432 376 q 427 323 427 266 l 414 266 q 407 321 400 338 q 393 354 380 358 q 365 362 333 364 q 302 365 202 365 q 188 244 181 165 q 175 85 175 34 l 175 23 l 240 23 q 316 24 351 28 q 387 32 410 41 q 431 48 448 73 q 464 99 484 153 l 498 153 q 492 120 486 83 q 481 46 475 -2 q 412 1 349 2 q 286 4 222 4 q 166 4 117 3 q 67 2 22 0 z"},"s":{"x_min":0,"x_max":368,"ha":368,"o":"m 22 100 l 21 74 q 24 53 53 37 q 81 21 117 21 q 173 21 203 51 q 233 82 233 138 q 233 174 217 196 q 202 217 166 230 q 158 233 142 238 q 48 269 48 331 q 48 360 62 385 q 75 410 104 434 q 135 459 170 473 q 205 487 239 487 q 262 487 280 479 q 298 472 316 456 q 306 440 299 423 q 292 407 288 387 l 278 388 l 279 405 l 279 410 q 279 432 259 444 q 240 456 204 456 q 159 456 134 431 q 108 406 108 362 q 108 307 200 276 q 216 271 224 268 q 259 256 276 234 q 292 212 292 178 q 292 103 225 44 q 158 -14 67 -14 q 34 -14 16 -4 q -3 6 -3 23 q -3 27 -1 37 q 0 46 3 62 l 10 98 z"},">":{"x_min":0,"x_max":833,"ha":833,"o":"m 129 554 l 704 318 l 704 278 l 129 43 l 129 96 l 628 298 l 129 501 z"},"l":{"x_min":0,"x_max":269,"ha":269,"o":"m 233 34 q 193 11 158 -1 q 123 -13 96 -13 q 73 -13 61 0 q 49 13 49 37 q 49 62 70 214 q 79 276 84 312 q 104 467 113 550 q 122 632 122 671 q 122 704 120 714 q 119 724 115 727 q 113 729 108 730 q 104 731 95 731 q 85 731 71 729 q 58 728 38 725 l 38 740 q 81 746 123 755 q 165 763 207 774 q 165 524 142 348 q 119 172 119 99 q 119 54 127 40 q 136 26 158 26 q 172 26 218 48 q 224 51 226 52 z"},"8":{"x_min":0,"x_max":560,"ha":560,"o":"m 240 359 q 172 328 140 286 q 108 243 108 184 q 108 109 151 63 q 194 17 264 17 q 330 17 372 57 q 413 97 413 161 q 413 223 375 268 q 336 312 240 359 z m 314 393 q 366 418 391 456 q 417 494 417 545 q 417 598 388 627 q 360 656 308 656 q 259 656 225 623 q 192 590 192 541 q 192 496 222 459 q 252 423 314 393 z m 225 371 q 180 398 159 432 q 138 465 138 508 q 138 581 192 628 q 246 676 330 676 q 398 676 437 643 q 476 610 476 552 q 476 500 439 458 q 402 416 330 384 q 406 339 434 300 q 462 261 462 203 q 462 165 444 125 q 426 86 394 54 q 361 21 318 3 q 275 -14 228 -14 q 148 -14 98 33 q 47 81 47 155 q 47 220 90 272 q 132 324 225 371 z"},"\\":{"x_min":0,"x_max":350,"ha":350,"o":"m 299 -93 l 252 -93 q 245 -51 235 -1 q 224 48 209 110 l 96 560 q 90 582 81 622 q 61 700 52 729 l 98 729 q 105 660 135 540 l 138 528 l 250 84 q 264 30 276 -13 q 288 -56 299 -93 z"},"e":{"x_min":0,"x_max":352,"ha":352,"o":"m 94 263 q 91 234 89 208 q 88 181 88 154 q 88 89 108 58 q 128 27 170 27 q 192 27 218 38 q 244 49 272 70 l 279 56 q 235 21 197 3 q 158 -15 125 -15 q 72 -15 46 16 q 20 48 20 111 q 20 177 33 240 q 46 304 68 350 q 99 412 148 449 q 197 486 248 486 q 278 486 294 472 q 310 459 310 433 q 310 378 252 332 q 194 286 94 263 z m 98 283 q 164 295 204 331 q 244 368 244 414 q 244 436 235 446 q 226 457 207 457 q 173 457 143 410 q 113 362 98 283 z"},"b":{"x_min":0,"x_max":493,"ha":493,"o":"m 113 122 q 113 66 128 41 q 144 15 178 15 q 252 15 307 106 q 362 197 362 331 q 362 390 348 414 q 333 439 301 439 q 274 439 233 413 q 192 387 164 350 q 139 316 126 259 q 113 201 113 122 z m 143 358 q 198 417 257 451 q 316 486 357 486 q 395 486 413 460 q 431 434 431 380 q 431 301 406 225 q 381 150 337 96 q 294 42 238 14 q 182 -14 119 -14 q 81 -14 63 2 q 46 18 46 52 q 46 91 70 243 q 75 275 78 293 q 98 426 110 532 q 121 639 121 692 q 121 716 116 724 q 110 732 95 732 q 83 732 45 726 q 41 726 38 725 l 38 740 q 79 746 121 755 q 162 763 205 774 q 188 681 173 578 q 158 476 143 358 z"},"%":{"x_min":0,"x_max":676,"ha":676,"o":"m 442 -8 q 395 -8 369 19 q 344 46 344 98 q 344 133 358 169 q 371 205 396 237 q 421 270 454 288 q 487 306 522 306 q 566 306 591 278 q 616 250 616 201 q 616 167 603 130 q 589 93 564 61 q 539 29 506 11 q 473 -8 442 -8 z m 462 19 q 504 19 534 66 q 565 113 565 182 q 565 230 547 255 q 530 280 496 280 q 454 280 424 232 q 395 185 395 111 q 395 65 412 42 q 429 19 462 19 z m 159 356 q 111 356 85 383 q 60 410 60 461 q 60 496 74 532 q 87 568 113 600 q 138 633 171 652 q 204 670 238 670 q 282 670 307 642 q 332 613 332 564 q 332 529 319 493 q 306 457 281 425 q 255 393 223 375 q 190 356 159 356 z m 177 382 q 221 382 251 429 q 282 476 282 546 q 282 594 265 619 q 248 643 214 643 q 171 643 142 595 q 112 547 112 474 q 112 430 129 406 q 146 382 177 382 z m 290 244 q 281 231 262 205 q 160 64 115 -14 l 66 -14 q 117 50 234 210 l 262 248 l 386 418 l 401 439 q 512 590 561 676 l 610 676 q 562 617 455 470 q 428 433 414 414 z"},"m":{"x_min":0,"x_max":829,"ha":829,"o":"m 47 -13 q 71 107 84 212 q 97 317 97 386 q 97 421 92 430 q 86 438 71 438 q 63 438 42 435 q 33 433 28 432 l 28 449 q 62 454 98 462 q 135 470 174 481 q 167 442 162 408 q 157 375 154 344 q 213 412 271 449 q 329 486 377 486 q 406 486 421 470 q 436 455 436 423 q 436 411 427 353 q 424 332 422 320 q 480 397 546 441 q 611 486 664 486 q 693 486 708 470 q 723 455 723 423 q 723 408 716 363 q 709 319 706 292 l 690 153 q 688 130 686 111 q 685 91 685 74 q 685 45 689 39 q 692 33 703 33 q 711 33 719 35 q 727 37 734 41 l 763 56 l 769 41 q 724 15 689 0 q 655 -14 638 -14 q 625 -14 620 -8 q 615 -2 615 16 q 615 34 625 103 q 632 147 636 175 l 648 266 q 652 299 655 326 q 657 353 657 371 q 657 406 645 424 q 633 443 611 443 q 593 443 568 430 q 542 417 514 393 q 487 371 466 345 q 445 319 434 296 q 418 263 408 200 q 398 137 398 63 q 398 41 398 29 q 398 18 399 8 q 376 6 357 1 q 337 -4 320 -13 q 344 107 357 211 q 370 315 370 371 q 370 406 358 424 q 346 443 324 443 q 306 443 281 430 q 255 417 227 393 q 201 372 185 349 q 168 327 157 296 q 143 256 134 192 q 125 128 125 57 q 125 37 125 27 q 125 17 126 8 q 104 6 84 1 q 64 -4 47 -13 z"},"#":{"x_min":0,"x_max":769,"ha":769,"o":"m 342 426 l 291 282 l 435 282 l 486 426 z m 387 710 l 443 710 l 359 474 l 503 474 l 587 710 l 642 710 l 558 474 l 712 474 l 695 426 l 541 426 l 491 282 l 657 282 l 639 234 l 473 234 l 390 0 l 335 0 l 418 234 l 275 234 l 191 0 l 136 0 l 219 234 l 57 234 l 75 282 l 236 282 l 287 426 l 112 426 l 129 474 l 304 474 z"},",":{"x_min":0,"x_max":280,"ha":280,"o":"m 74 75 l 144 75 q 133 31 101 -30 q 69 -90 17 -165 l 1 -165 q 26 -109 44 -49 q 62 11 74 75 z"},"n":{"x_min":0,"x_max":556,"ha":556,"o":"m 47 -13 q 71 107 84 212 q 97 317 97 386 q 97 421 92 430 q 86 438 71 438 q 63 438 42 435 q 33 433 28 432 l 28 449 q 62 454 98 462 q 135 470 174 481 q 166 436 159 396 q 153 356 149 320 q 208 397 273 441 q 338 486 391 486 q 420 486 435 470 q 450 455 450 423 q 450 408 443 363 q 436 319 433 292 l 417 153 q 415 131 413 111 q 412 91 412 74 q 412 45 416 39 q 419 33 430 33 q 438 33 446 35 q 454 37 461 41 l 490 56 l 496 41 q 451 15 416 0 q 382 -14 365 -14 q 351 -14 346 -8 q 341 -1 341 16 q 341 32 350 88 q 359 145 363 175 l 375 266 q 379 299 382 326 q 384 353 384 371 q 384 406 372 424 q 360 443 338 443 q 320 443 295 430 q 270 417 241 393 q 214 371 193 345 q 172 319 161 296 q 145 263 135 200 q 125 137 125 63 q 125 41 125 29 q 125 18 126 8 q 104 6 84 1 q 64 -4 47 -13 z"},"h":{"x_min":0,"x_max":539,"ha":539,"o":"m 139 328 q 197 401 260 444 q 324 486 375 486 q 404 486 419 470 q 434 455 434 423 q 434 408 427 364 q 419 320 416 292 l 400 153 q 398 135 397 115 q 396 96 396 74 q 396 45 400 39 q 403 33 414 33 q 422 33 429 35 q 437 37 444 41 l 474 56 l 479 41 q 434 15 399 0 q 365 -14 348 -14 q 334 -14 330 -8 q 325 -2 325 16 q 325 32 334 88 q 343 145 347 175 l 359 266 q 363 299 366 326 q 368 354 368 371 q 368 406 356 424 q 344 443 322 443 q 304 443 279 430 q 253 417 225 393 q 198 371 177 345 q 156 319 145 296 q 129 264 119 194 q 109 125 103 5 q 81 1 61 -3 q 42 -8 27 -13 q 71 215 96 404 q 122 592 122 671 q 122 705 121 714 q 119 724 115 727 q 113 729 108 730 q 104 731 95 731 q 85 731 71 729 q 58 728 38 725 l 38 740 q 79 746 121 755 q 162 763 205 774 q 188 686 172 572 q 155 458 139 328 z"},"z":{"x_min":0,"x_max":424,"ha":424,"o":"m 78 34 q 86 34 102 35 q 117 35 124 35 q 169 35 216 32 q 262 29 262 29 q 304 29 317 45 q 330 61 335 137 q 353 125 361 113 q 370 101 370 87 q 370 68 340 42 q 333 36 329 32 q 326 29 319 22 q 287 -9 240 -9 q 210 -9 153 -3 q 95 2 69 2 q 48 2 26 0 q 3 -2 -20 -7 l -25 0 q 63 116 141 229 q 218 341 284 450 q 281 450 276 450 q 238 452 221 452 q 165 452 129 442 q 93 433 72 412 l 64 381 l 50 381 q 54 409 57 432 q 60 456 61 476 q 102 474 146 473 q 190 472 241 472 q 293 472 320 473 q 346 473 369 474 l 371 468 q 286 348 212 239 q 138 129 78 34 z"},"B":{"x_min":0,"x_max":597,"ha":597,"o":"m 174 22 q 191 19 206 18 q 221 16 235 16 q 329 16 379 75 q 430 134 430 243 q 430 315 391 348 q 353 382 271 382 q 267 382 259 381 q 251 381 248 381 l 250 397 l 263 397 q 345 397 394 447 q 443 497 443 579 q 443 639 414 667 q 384 696 321 696 q 312 696 297 695 q 281 694 259 693 q 229 591 206 412 q 183 232 174 22 z m 22 0 l 24 16 l 95 22 q 134 231 155 404 q 176 576 176 673 l 176 693 l 107 699 l 109 715 q 133 713 157 712 q 181 711 206 711 q 241 711 290 713 q 339 715 353 715 q 433 715 473 685 q 513 656 513 597 q 513 521 459 465 q 405 409 313 391 q 411 385 455 349 q 499 313 499 239 q 499 133 428 65 q 358 -3 249 -3 q 248 -3 196 -1 q 144 1 92 1 q 65 1 50 1 q 35 0 22 0 z"},"K":{"x_min":0,"x_max":616,"ha":616,"o":"m 328 715 l 326 699 l 260 693 q 249 667 236 594 q 222 521 205 395 q 319 491 391 569 q 462 647 478 691 l 408 697 l 410 715 q 427 713 447 713 q 467 712 508 712 q 550 712 571 713 q 592 713 611 715 l 609 697 l 553 691 q 509 658 389 540 q 311 464 265 420 l 478 88 q 494 63 509 47 q 524 31 541 22 l 592 16 l 590 0 q 575 2 558 3 q 542 4 521 4 q 501 4 484 3 q 466 2 450 0 q 422 56 391 112 q 359 167 325 221 l 222 385 l 203 372 q 189 257 183 170 q 176 82 176 22 l 248 16 l 246 0 q 222 2 194 3 q 167 4 135 4 q 104 4 75 3 q 47 2 21 0 l 23 16 l 95 22 q 134 234 155 407 q 177 581 177 674 l 177 693 l 107 699 l 109 715 q 134 713 161 712 q 188 711 219 711 q 250 711 277 712 q 304 713 328 715 z"},"R":{"x_min":0,"x_max":617,"ha":617,"o":"m 206 392 q 190 256 183 170 q 176 84 176 32 l 176 22 l 248 16 l 246 0 q 222 2 194 3 q 167 4 135 4 q 104 4 75 3 q 47 2 21 0 l 23 16 l 95 22 q 134 234 155 407 q 177 581 177 674 l 177 693 l 107 699 l 109 715 q 136 713 163 712 q 189 711 217 711 q 252 711 300 713 q 348 715 360 715 q 442 715 483 684 q 525 652 525 591 q 525 518 470 467 q 416 417 315 395 q 343 351 393 272 q 524 62 571 22 l 619 16 l 617 0 q 602 2 584 3 q 567 4 548 4 q 528 4 511 3 q 495 2 479 0 q 443 70 385 169 q 327 269 251 388 z m 208 410 q 211 410 217 410 q 241 408 250 408 q 341 408 396 456 q 452 503 452 579 q 452 639 420 667 q 388 696 321 696 q 311 696 295 695 q 280 694 260 693 q 250 668 239 607 q 227 546 208 410 z"},"T":{"x_min":0,"x_max":523,"ha":523,"o":"m 146 693 q 77 693 56 675 q 35 657 30 600 l 15 600 q 23 643 27 677 q 32 712 33 742 l 45 742 l 45 739 q 45 725 80 720 q 116 715 268 715 l 379 715 q 510 715 540 720 q 570 726 570 740 l 570 742 l 582 742 q 574 711 569 676 q 563 640 562 600 l 547 600 q 548 608 549 617 q 550 625 550 632 q 550 667 529 679 q 508 691 416 691 l 356 691 q 321 546 301 377 q 280 208 275 22 l 358 16 l 356 0 q 329 2 299 3 q 270 4 235 4 q 200 4 170 3 q 140 2 111 0 l 113 16 l 194 22 q 233 234 254 407 q 276 581 276 674 l 276 693 z"},"P":{"x_min":0,"x_max":533,"ha":533,"o":"m 287 0 q 257 2 224 3 q 190 4 152 4 q 115 4 82 3 q 50 2 21 0 l 23 16 l 95 22 q 134 234 155 407 q 177 581 177 674 l 177 693 l 107 699 l 109 715 q 135 713 161 712 q 188 711 214 711 q 250 711 296 713 q 342 715 354 715 q 437 715 477 682 q 516 649 516 581 q 516 481 444 411 q 372 342 266 342 q 265 342 256 343 q 248 344 241 344 l 243 357 q 246 357 251 356 q 257 356 259 356 q 343 356 397 415 q 451 473 451 563 q 451 628 415 662 q 378 697 310 697 q 302 697 275 694 q 265 693 260 693 q 229 587 207 410 q 185 233 177 23 l 289 16 z"},"|":{"x_min":0,"x_max":500,"ha":500,"o":"m 224 764 l 277 764 l 277 -236 l 224 -236 z"},"t":{"x_min":0,"x_max":289,"ha":289,"o":"m 100 432 l 26 432 l 42 449 l 101 449 q 104 478 105 506 q 107 535 107 565 l 107 589 l 192 628 q 181 579 172 535 q 164 490 157 449 l 273 449 l 258 432 l 155 432 q 134 290 125 207 q 116 125 116 84 q 116 49 124 36 q 132 23 151 23 q 161 23 177 28 q 194 34 216 44 l 221 29 q 181 8 147 -3 q 114 -14 91 -14 q 66 -14 57 -3 q 48 7 48 37 q 48 51 68 182 q 87 312 100 432 z"},"M":{"x_min":0,"x_max":986,"ha":986,"o":"m -70 0 l -69 16 l -1 22 q 44 85 178 378 l 211 449 q 259 554 278 607 q 298 661 298 684 l 298 686 l 295 691 l 214 698 l 216 715 q 235 712 255 711 q 275 710 299 710 q 324 710 343 711 q 362 712 379 715 q 373 700 370 682 q 367 665 367 643 q 367 596 386 448 q 406 301 438 118 q 552 291 642 440 q 731 590 796 715 q 809 713 824 713 q 839 712 869 712 q 901 712 917 713 q 933 713 947 715 l 945 698 l 872 691 q 853 583 842 436 q 832 289 832 119 q 832 98 833 74 q 835 50 838 22 l 929 16 l 927 0 q 897 2 865 3 q 832 4 794 4 q 756 4 723 3 q 690 2 660 0 l 662 16 l 757 22 q 777 141 787 292 q 798 444 798 617 l 798 658 l 722 534 q 437 67 404 -9 l 391 -10 q 384 85 364 240 q 344 394 311 615 q 205 394 136 231 q 68 68 62 22 l 140 16 l 138 0 q 115 2 90 3 q 64 4 34 4 q 5 4 -21 3 q -46 2 -70 0 z"},"g":{"x_min":0,"x_max":476,"ha":476,"o":"m 314 274 l 331 377 q 333 393 335 406 q 336 420 336 429 q 336 450 326 458 q 316 467 292 467 q 257 467 221 443 q 185 420 157 379 q 121 326 100 249 q 80 172 80 88 q 80 56 92 41 q 104 25 130 25 q 153 25 183 42 q 212 59 241 89 q 270 119 286 157 q 302 195 314 274 z m 284 106 q 234 50 177 18 q 121 -14 73 -14 q 42 -14 25 5 q 9 24 9 62 q 9 150 37 237 q 66 323 115 385 q 152 432 202 459 q 252 486 300 486 q 313 486 329 483 q 345 480 365 475 l 417 488 q 403 448 390 387 q 377 327 360 213 q 357 191 351 150 q 325 -29 300 -93 q 282 -139 250 -177 q 218 -215 174 -243 q 140 -265 106 -276 q 73 -287 45 -287 q 27 -287 12 -282 q -3 -277 -16 -267 l -6 -203 q 17 -224 42 -235 q 67 -245 96 -245 q 172 -245 217 -163 q 261 -80 284 106 z"},"j":{"x_min":0,"x_max":255,"ha":255,"o":"m 153 629 q 135 629 128 637 q 120 645 120 662 q 120 687 130 699 q 139 711 159 711 q 177 711 184 703 q 192 695 192 677 q 192 652 182 641 q 173 629 153 629 z m 178 481 q 151 339 129 155 q 107 -29 105 -44 q 104 -51 103 -64 q 88 -175 38 -231 q 19 -253 -6 -270 q -30 -287 -60 -299 l -69 -284 q 16 -240 45 -55 l 47 -44 q 72 112 84 221 q 97 330 97 386 q 97 421 92 430 q 87 438 72 438 q 65 438 54 437 q 43 435 28 432 l 28 449 q 63 455 100 463 q 138 471 178 481 z"},"i":{"x_min":0,"x_max":273,"ha":273,"o":"m 229 32 q 187 11 149 -2 q 112 -14 95 -14 q 71 -14 60 -2 q 50 9 50 36 q 50 51 61 110 q 67 148 71 170 q 85 255 93 314 q 100 372 100 391 q 100 419 94 428 q 88 438 71 438 q 63 438 53 437 q 42 435 28 432 l 28 449 q 70 456 108 464 q 146 472 181 481 q 152 342 135 235 q 119 128 119 83 q 119 55 128 41 q 137 27 156 27 q 168 27 185 32 q 201 37 224 48 z m 153 629 q 135 629 128 637 q 120 645 120 662 q 120 687 130 699 q 139 711 159 711 q 177 711 184 703 q 192 695 192 677 q 192 652 182 641 q 173 629 153 629 z"},"y":{"x_min":0,"x_max":480,"ha":480,"o":"m 277 78 q 240 31 201 8 q 161 -16 120 -16 q 94 -16 82 -3 q 71 9 71 39 q 71 53 83 168 q 96 284 96 384 q 96 415 91 429 q 86 444 77 444 q 69 444 29 434 q 19 432 12 430 l 8 446 l 119 478 q 125 480 130 481 q 135 482 137 482 q 149 482 156 469 q 163 457 163 436 q 163 420 150 309 q 136 197 136 104 q 136 62 146 45 q 155 28 178 28 q 205 28 237 59 q 270 91 292 141 q 304 168 318 219 q 332 270 345 332 q 349 354 351 370 q 353 386 353 398 q 353 419 347 432 q 342 445 329 453 l 328 459 q 352 471 365 476 q 378 481 386 481 q 402 481 411 469 q 420 458 420 437 q 420 391 384 262 q 347 133 286 -30 q 238 -156 173 -222 q 107 -289 30 -289 q 13 -289 1 -283 q -11 -277 -11 -269 q -11 -267 -10 -261 q -9 -256 -8 -249 l 0 -207 l 6 -207 q 14 -223 30 -231 q 45 -239 69 -239 q 94 -239 116 -230 q 139 -222 159 -205 q 207 -165 263 30 q 272 62 277 78 z"},"@":{"x_min":0,"x_max":986,"ha":986,"o":"m 582 166 q 553 114 515 88 q 476 61 430 61 q 371 61 334 106 q 298 151 298 225 q 298 277 322 329 q 346 381 389 424 q 422 456 459 474 q 497 491 533 491 q 575 491 603 466 q 630 441 641 394 l 668 483 l 732 483 l 649 187 q 644 168 642 157 q 640 146 640 136 q 640 110 653 96 q 666 82 689 82 q 712 82 742 97 q 772 111 798 136 q 843 179 869 243 q 894 307 894 379 q 894 518 799 602 q 705 687 550 687 q 464 687 389 658 q 315 630 257 575 q 192 514 158 431 q 125 348 125 247 q 125 161 152 98 q 180 36 239 -15 q 295 -64 368 -89 q 440 -114 525 -114 q 606 -114 683 -88 q 759 -62 826 -12 l 841 -29 q 769 -82 689 -109 q 608 -136 522 -136 q 430 -136 356 -114 q 282 -91 222 -46 q 148 10 110 89 q 72 167 72 262 q 72 362 114 448 q 156 534 236 600 q 300 654 378 681 q 455 708 544 708 q 712 708 814 617 q 915 525 915 374 q 915 297 887 230 q 858 163 806 115 q 777 88 746 75 q 714 61 682 61 q 635 61 610 87 q 585 114 582 166 z m 534 473 q 507 473 485 458 q 462 443 439 408 q 403 354 382 293 q 361 232 361 185 q 361 138 382 111 q 403 83 438 83 q 471 83 501 105 q 531 126 559 170 q 587 214 604 267 q 620 320 620 365 q 620 412 595 442 q 571 473 534 473 z"},".":{"x_min":0,"x_max":280,"ha":280,"o":"m 95 -7 q 78 -7 70 1 q 62 8 62 26 q 62 51 72 63 q 81 75 101 75 q 119 75 126 67 q 134 59 134 41 q 134 17 124 5 q 115 -7 95 -7 z"},"p":{"x_min":0,"x_max":512,"ha":512,"o":"m 144 258 l 133 169 q 130 140 128 123 q 127 106 127 98 q 127 62 147 43 q 167 24 203 24 q 240 24 271 45 q 302 66 323 105 q 350 154 366 219 q 382 283 382 342 q 382 396 363 424 q 343 452 306 452 q 283 452 252 436 q 222 420 192 391 q 174 374 162 340 q 150 307 144 258 z m 117 11 q 107 -67 103 -132 q 98 -197 98 -250 l 98 -265 l 180 -271 l 180 -287 q 147 -285 118 -283 q 89 -282 63 -282 q 37 -282 9 -283 q -19 -285 -50 -287 l -50 -271 l 24 -265 q 34 -216 41 -165 q 49 -114 57 -35 l 84 215 l 84 218 q 98 345 98 382 q 98 419 93 428 q 87 437 72 437 q 65 437 53 435 q 42 434 20 429 l 20 447 q 57 453 96 461 q 135 469 180 481 l 160 388 q 210 435 262 460 q 314 486 358 486 q 406 486 428 456 q 451 425 451 362 q 451 290 426 218 q 401 147 359 97 q 318 49 270 22 q 221 -5 176 -5 q 161 -5 146 -1 q 132 3 117 11 z"},"X":{"x_min":0,"x_max":627,"ha":627,"o":"m -67 0 l -65 16 l -9 22 q 33 55 89 120 q 146 185 217 282 l 300 394 l 239 543 l 238 546 q 192 661 170 691 l 95 697 l 97 715 q 120 712 145 711 q 170 710 203 710 q 236 710 262 711 q 288 712 311 715 l 309 697 l 259 691 q 264 655 276 614 q 288 572 306 527 l 338 447 l 438 579 q 460 608 478 636 q 495 664 508 691 l 452 697 l 454 715 q 473 712 494 711 q 516 710 542 710 q 569 710 591 711 q 612 712 632 715 l 630 697 l 572 691 q 544 668 519 642 q 494 616 471 584 l 350 421 l 433 221 q 457 164 480 114 q 503 64 527 22 l 600 16 l 598 0 q 573 2 545 3 q 518 4 486 4 q 455 4 427 3 q 400 2 374 0 l 376 16 l 443 22 q 433 68 417 116 q 400 165 379 213 l 311 369 l 192 207 q 147 146 120 103 q 93 60 75 22 l 141 16 l 139 0 q 115 2 90 3 q 64 4 35 4 q 6 4 -19 3 q -44 2 -67 0 z"},"*":{"x_min":0,"x_max":463,"ha":463,"o":"m 178 411 l 142 435 q 166 468 206 530 q 218 549 224 558 q 190 558 155 556 q 119 554 78 550 l 78 594 q 111 593 146 592 q 180 590 220 587 q 204 614 183 642 q 163 671 139 701 l 177 724 q 188 707 213 665 q 238 624 252 601 q 266 624 281 651 q 297 679 325 729 l 361 706 l 283 589 q 312 590 347 592 q 381 593 420 595 l 420 551 q 383 553 348 555 q 312 556 278 557 q 304 520 324 492 q 345 463 363 440 l 323 413 q 305 446 272 506 l 251 544 q 233 508 215 475 q 197 442 178 411 z"},"Y":{"x_min":0,"x_max":558,"ha":558,"o":"m 109 0 l 111 16 l 198 22 q 214 82 224 146 q 234 209 239 275 q 199 429 164 536 q 130 644 106 691 l 25 697 l 27 715 q 56 712 83 710 q 111 709 139 709 q 167 709 195 710 q 224 712 251 715 l 249 697 l 183 691 q 190 637 215 548 q 241 459 287 325 q 364 442 417 535 q 469 628 493 691 l 426 697 l 428 715 q 451 712 475 710 q 499 709 522 709 q 546 709 571 710 q 595 712 619 715 l 617 697 l 553 691 q 491 611 427 511 q 364 410 302 291 q 289 221 282 162 q 275 103 275 56 q 275 42 275 35 q 275 28 276 22 l 366 16 l 364 0 q 336 2 306 3 q 275 4 239 4 q 203 4 171 3 q 139 2 109 0 z"},"c":{"x_min":0,"x_max":356,"ha":356,"o":"m 279 56 q 233 19 196 2 q 158 -15 123 -15 q 69 -15 44 17 q 19 50 19 122 q 19 212 43 288 q 68 364 111 410 q 145 447 183 466 q 221 486 258 486 q 275 486 292 480 q 309 474 326 461 l 295 402 q 282 428 263 440 q 244 453 220 453 q 161 453 124 369 q 87 285 87 148 q 87 88 108 58 q 129 27 170 27 q 192 27 218 38 q 244 49 272 70 z"},"!":{"x_min":0,"x_max":329,"ha":329,"o":"m 245 715 q 228 590 206 458 q 183 325 155 183 l 138 183 q 153 340 161 471 q 169 602 170 701 q 193 704 211 707 q 229 710 245 715 z m 125 -7 q 108 -7 101 0 q 94 7 94 24 q 94 47 103 59 q 112 70 131 70 q 148 70 155 63 q 162 56 162 39 q 162 16 153 4 q 144 -7 125 -7 z"},"/":{"x_min":0,"x_max":350,"ha":350,"o":"m 378 729 q 351 680 326 631 q 300 582 276 532 l 73 120 q 37 47 16 -2 q -5 -52 -18 -93 l -72 -93 q -42 -40 5 56 q 19 84 26 98 l 231 515 q 260 575 283 628 q 306 681 323 729 z"},"[":{"x_min":0,"x_max":370,"ha":370,"o":"m 59 -74 l 60 -59 l 85 -53 q 116 100 139 287 q 162 475 177 691 l 145 697 l 147 713 q 171 711 195 711 q 219 710 242 710 q 265 710 289 711 q 313 711 337 713 l 336 697 l 246 690 q 227 617 207 464 q 188 312 155 -49 l 251 -59 l 249 -74 q 228 -72 204 -71 q 180 -70 153 -70 q 126 -70 103 -71 q 80 -72 59 -74 z"},"6":{"x_min":0,"x_max":560,"ha":560,"o":"m 183 295 l 172 308 q 207 348 248 368 q 290 389 333 389 q 398 389 439 349 q 480 308 480 244 q 480 196 459 151 q 438 106 396 67 q 354 27 306 6 q 259 -14 209 -14 q 140 -14 99 37 q 58 89 58 177 q 58 276 97 369 q 136 462 209 536 q 275 603 343 640 q 410 677 464 677 q 473 677 483 675 q 493 674 504 671 l 489 618 q 469 625 452 628 q 435 632 420 632 q 377 632 337 613 q 297 595 259 558 q 193 493 158 408 q 122 322 122 230 q 122 132 159 78 q 197 25 265 25 q 331 25 375 74 q 418 124 418 200 q 418 265 382 305 q 346 345 287 345 q 258 345 234 334 q 210 322 183 295 z"},"r":{"x_min":0,"x_max":343,"ha":343,"o":"m 42 -13 q 71 131 87 239 q 103 347 103 400 q 103 425 100 432 q 97 440 86 440 l 79 440 l 26 434 l 26 449 q 65 454 104 462 q 143 470 180 481 q 172 443 165 404 q 157 364 151 321 q 197 397 242 441 q 287 486 316 486 q 332 486 340 477 q 348 468 348 451 q 348 442 345 431 q 341 420 335 409 q 324 417 313 421 q 302 425 291 425 q 219 425 170 314 q 120 203 120 28 l 120 6 q 98 3 78 -1 q 59 -6 42 -13 z"},"2":{"x_min":0,"x_max":560,"ha":560,"o":"m 42 53 l 64 53 q 173 156 229 213 q 285 270 307 299 q 346 353 363 397 q 380 441 380 488 q 380 560 344 602 q 308 644 247 644 q 203 644 174 626 q 144 608 134 576 l 121 579 q 122 589 123 597 q 125 605 128 612 q 158 643 198 659 q 238 676 283 676 q 359 676 406 633 q 452 589 452 518 q 452 443 385 351 q 318 260 94 53 l 232 53 q 282 53 339 56 q 395 60 455 66 q 447 51 440 33 q 433 15 426 -5 q 358 0 284 2 q 209 4 105 4 l 48 4 q 21 4 4 0 q -13 -3 -25 -11 l -32 -2 q -15 15 4 29 q 22 43 42 53 z"},"{":{"x_min":0,"x_max":500,"ha":500,"o":"m 413 740 l 413 716 q 341 715 315 689 q 289 664 289 587 l 289 516 q 289 406 258 366 q 228 325 144 310 q 228 294 258 254 q 289 214 289 104 l 289 33 q 289 -43 315 -69 q 341 -94 413 -95 l 413 -119 l 408 -119 q 303 -119 264 -83 q 225 -48 225 50 l 225 156 q 225 232 196 261 q 167 291 86 297 l 86 324 q 168 332 197 360 q 225 389 225 465 l 225 571 q 225 668 264 704 q 303 740 408 740 z"},"9":{"x_min":0,"x_max":560,"ha":560,"o":"m 63 44 q 84 37 101 33 q 118 30 132 30 q 174 30 215 49 q 255 68 294 106 q 360 171 400 269 q 439 367 439 468 q 439 556 404 603 q 369 650 304 650 q 237 650 191 600 q 146 550 146 474 q 146 401 185 351 q 225 302 281 302 q 296 302 314 308 q 332 313 352 325 l 355 307 q 320 287 289 277 q 257 267 229 267 q 165 267 126 311 q 87 354 87 427 q 87 477 104 520 q 122 562 155 597 q 192 635 241 655 q 290 676 343 676 q 421 676 465 629 q 509 583 509 500 q 509 404 464 304 q 420 204 342 125 q 276 59 209 22 q 142 -15 88 -15 q 79 -15 69 -14 q 60 -12 48 -9 z"}," ":{"x_min":0,"x_max":280,"ha":280,"o":""},"I":{"x_min":0,"x_max":347,"ha":347,"o":"m 328 715 l 326 699 l 260 693 q 229 589 207 412 q 185 235 176 22 l 248 16 l 246 0 q 222 2 194 3 q 167 4 135 4 q 104 4 75 3 q 47 2 21 0 l 23 16 l 95 22 q 134 234 155 407 q 177 581 177 674 l 177 693 l 107 699 l 109 715 q 134 713 161 712 q 188 711 219 711 q 250 711 277 712 q 304 713 328 715 z"},"H":{"x_min":0,"x_max":782,"ha":782,"o":"m 21 0 l 23 16 l 95 22 q 134 234 155 407 q 177 581 177 674 l 177 693 l 107 699 l 109 715 q 134 713 161 712 q 188 711 218 711 q 249 711 275 712 q 302 713 326 715 l 325 699 l 259 693 q 248 665 238 613 q 228 561 210 419 q 284 418 323 417 q 362 417 396 417 q 458 417 584 419 l 590 419 q 604 526 609 578 q 614 631 614 666 q 614 678 614 683 q 613 689 613 693 l 544 699 l 546 715 q 571 713 598 712 q 625 711 655 711 q 686 711 712 712 q 739 713 763 715 l 761 699 l 695 693 q 665 591 643 414 q 621 237 612 22 l 683 16 l 681 0 q 657 2 630 3 q 603 4 571 4 q 540 4 512 3 q 484 2 458 0 l 460 16 l 531 22 q 546 91 561 184 q 575 277 587 392 q 532 395 485 396 q 438 397 394 397 q 351 397 305 396 q 258 395 205 392 q 189 258 182 172 q 175 86 175 32 l 175 22 l 247 16 l 245 0 q 221 2 194 3 q 167 4 136 4 q 104 4 76 3 q 47 2 21 0 z"},"4":{"x_min":0,"x_max":560,"ha":560,"o":"m 312 243 q 326 338 337 425 q 348 512 356 598 q 287 511 216 423 q 146 335 71 243 z m 307 203 l 117 203 q 93 203 32 198 q 21 197 16 197 l 13 208 q 99 312 179 414 q 259 517 335 617 q 364 635 387 650 q 410 664 431 678 l 441 676 q 425 624 410 535 q 394 446 368 243 q 409 244 450 245 q 490 247 529 249 q 528 246 524 239 q 512 209 504 193 q 470 197 435 199 q 399 202 363 203 q 355 149 350 99 q 346 48 345 2 q 329 1 310 -1 q 292 -3 269 -8 q 283 51 292 104 q 302 157 307 203 z"},"~":{"x_min":0,"x_max":833,"ha":833,"o":"m 747 366 l 747 311 q 697 276 650 259 q 604 241 558 241 q 510 241 431 269 q 421 272 417 274 l 409 277 q 323 308 276 308 q 235 308 190 290 q 146 271 87 230 l 87 285 q 139 321 186 338 q 232 356 276 356 q 327 356 409 326 q 414 324 417 323 q 422 321 433 317 q 514 288 558 288 q 600 288 645 307 q 689 325 747 366 z"},"D":{"x_min":0,"x_max":699,"ha":699,"o":"m 14 0 l 16 16 l 95 22 q 134 234 155 407 q 177 581 177 674 l 177 693 l 100 699 l 102 715 q 129 713 158 712 q 186 711 216 711 q 258 711 322 713 q 385 715 407 715 q 470 715 509 708 q 549 700 575 684 q 617 659 640 604 q 663 549 663 475 q 663 384 637 299 q 612 214 565 150 q 507 70 432 33 q 357 -3 250 -3 q 238 -3 185 0 q 131 2 91 2 q 62 2 45 1 q 29 1 14 0 z m 175 22 q 193 19 213 18 q 233 16 254 16 q 341 16 395 38 q 448 60 491 112 q 539 169 566 259 q 594 349 594 448 q 594 571 536 634 q 478 697 364 697 q 335 697 310 696 q 284 695 259 693 q 230 600 208 420 q 185 240 175 22 z"},"^":{"x_min":0,"x_max":1000,"ha":1000,"o":"m 459 714 l 540 714 l 797 438 l 754 438 l 499 658 l 243 438 l 201 438 z"},"0":{"x_min":0,"x_max":560,"ha":560,"o":"m 239 32 q 288 32 333 61 q 377 89 408 141 q 442 199 461 271 q 480 343 480 417 q 480 518 437 575 q 395 633 320 633 q 217 633 148 524 q 80 415 80 243 q 80 140 121 86 q 162 32 239 32 z m 189 -14 q 106 -14 61 39 q 16 91 16 189 q 16 268 39 348 q 61 429 103 500 q 152 583 222 629 q 291 676 365 676 q 451 676 498 619 q 545 563 545 459 q 545 380 522 302 q 499 224 456 158 q 403 77 333 31 q 262 -14 189 -14 z"},"F":{"x_min":0,"x_max":528,"ha":528,"o":"m 21 0 l 23 16 l 95 22 q 134 234 155 407 q 177 581 177 674 l 177 693 l 107 699 l 109 715 q 125 714 155 713 q 249 710 297 710 q 348 710 453 713 q 490 714 509 715 q 505 682 502 649 q 500 616 497 584 l 485 584 q 483 639 471 659 q 459 679 425 687 q 412 690 384 692 q 356 694 317 694 q 295 694 282 694 q 270 693 259 693 q 248 665 237 602 q 226 539 207 387 q 219 387 233 386 q 247 386 274 386 q 324 386 348 388 q 372 391 380 396 q 392 404 400 426 q 409 447 415 484 l 430 484 q 420 431 416 375 q 411 319 411 258 l 398 258 q 392 317 385 336 q 378 354 364 358 q 349 362 320 364 q 291 365 202 365 q 188 244 181 165 q 175 85 175 34 l 175 23 l 285 16 l 285 0 q 255 2 222 3 q 188 4 151 4 q 114 4 82 3 q 50 2 21 0 z"},"`":{"x_min":0,"x_max":500,"ha":500,"o":"m 316 540 q 274 583 242 623 q 209 663 186 700 q 215 698 232 697 q 250 696 264 696 q 271 669 287 632 q 303 594 331 540 z"},"k":{"x_min":0,"x_max":481,"ha":481,"o":"m 129 244 q 226 248 287 289 q 347 331 347 392 q 347 419 335 433 q 323 447 299 447 q 279 447 255 432 q 230 417 203 387 q 171 352 152 315 q 133 279 129 244 z m 103 5 q 81 1 61 -3 q 42 -8 27 -13 q 71 215 96 404 q 122 592 122 671 q 122 705 121 714 q 119 724 115 727 q 113 729 108 730 q 104 731 95 731 q 85 731 71 729 q 58 728 38 725 l 38 740 q 79 746 121 755 q 162 763 205 774 q 188 684 172 572 q 155 460 138 324 q 182 398 239 442 q 296 486 344 486 q 375 486 394 468 q 413 449 413 419 q 413 364 363 316 q 313 269 226 243 q 243 224 271 178 q 277 167 281 161 l 353 44 q 379 1 396 -16 q 412 -32 427 -34 l 455 -27 l 459 -38 q 430 -51 408 -58 q 385 -65 370 -65 q 353 -65 340 -54 q 326 -43 311 -16 l 194 191 q 181 212 170 220 q 159 228 144 228 q 139 228 128 227 q 126 226 125 226 q 117 181 112 128 q 106 75 103 5 z"},"u":{"x_min":0,"x_max":539,"ha":539,"o":"m 326 113 q 267 55 204 21 q 142 -14 100 -14 q 74 -14 64 -4 q 54 5 54 31 q 54 50 66 121 q 72 155 75 175 q 90 271 96 326 q 103 382 103 409 q 103 425 98 431 q 92 437 78 437 q 72 437 61 436 q 51 435 34 432 l 34 449 q 68 454 105 462 q 142 470 181 481 q 146 292 135 210 q 123 128 123 83 q 123 57 133 45 q 142 33 163 33 q 201 33 253 73 q 305 114 327 166 q 338 191 350 264 q 361 337 361 409 q 361 425 356 431 q 351 437 337 437 q 331 437 321 436 q 312 435 293 432 l 293 449 q 326 454 362 462 q 398 470 438 481 q 413 348 399 241 q 385 135 385 81 q 385 47 389 40 q 394 33 407 33 q 414 33 421 35 q 428 37 435 41 l 465 56 l 471 41 q 431 13 401 0 q 372 -14 351 -14 q 333 -14 326 -6 q 320 3 320 33 q 320 39 321 58 q 323 77 326 113 z"},"]":{"x_min":0,"x_max":370,"ha":370,"o":"m 298 713 l 296 697 l 271 691 q 241 540 218 352 q 194 165 179 -53 l 211 -59 l 209 -75 q 186 -74 162 -73 q 138 -72 114 -72 q 91 -72 67 -73 q 42 -74 19 -75 l 21 -59 l 110 -51 q 129 24 149 176 q 168 329 201 687 l 105 697 l 107 713 l 110 713 q 173 709 204 709 q 221 709 240 710 q 259 710 298 713 z"},"U":{"x_min":0,"x_max":787,"ha":787,"o":"m 162 691 l 85 697 l 87 715 q 111 712 139 710 q 167 709 205 709 q 244 709 272 710 q 301 712 326 715 l 324 697 l 251 691 q 240 661 229 605 q 218 550 202 440 l 184 319 q 179 285 177 252 q 174 220 174 193 q 174 104 224 58 q 274 12 369 12 q 462 12 517 59 q 572 105 603 212 q 608 231 618 292 q 628 354 641 450 q 647 493 650 532 q 653 572 653 609 q 653 632 651 653 q 650 673 647 691 l 566 697 l 567 715 q 589 712 615 710 q 641 709 676 709 q 711 709 737 710 q 763 712 786 715 l 783 697 l 717 691 q 689 611 669 465 q 648 319 641 279 q 621 174 602 130 q 583 87 551 58 q 509 20 458 2 q 406 -16 334 -16 q 231 -16 172 27 q 112 70 112 143 q 112 185 136 367 q 160 549 162 691 z"},"o":{"x_min":0,"x_max":451,"ha":451,"o":"m 175 14 q 240 14 281 96 q 322 177 322 310 q 322 394 303 429 q 284 465 240 465 q 171 465 130 381 q 89 298 89 156 q 89 83 110 49 q 131 14 175 14 z m 140 -15 q 80 -15 51 19 q 21 53 21 122 q 21 289 87 387 q 152 486 262 486 q 326 486 358 451 q 390 416 390 346 q 390 266 366 192 q 342 117 302 68 q 270 29 227 7 q 184 -15 140 -15 z"},"N":{"x_min":0,"x_max":755,"ha":755,"o":"m -16 0 l -14 16 l 80 22 q 122 221 144 390 q 166 559 166 667 l 166 675 q 163 687 147 692 q 132 697 78 698 l 80 715 q 93 715 118 713 q 143 712 155 712 q 167 712 191 713 q 215 715 226 715 q 262 636 350 492 q 438 348 576 140 q 603 326 615 448 q 628 571 628 647 q 628 662 628 672 q 627 682 627 691 l 537 697 l 540 715 q 570 712 600 710 q 629 709 659 709 q 689 709 720 710 q 750 712 781 715 l 779 697 l 684 691 q 643 503 621 327 q 599 150 597 -12 l 583 -15 q 567 45 314 443 q 237 563 194 632 q 167 445 152 291 q 136 138 136 69 q 136 48 136 39 q 136 30 137 22 l 227 16 l 225 0 q 199 2 169 3 q 140 4 106 4 q 72 4 42 3 q 12 2 -16 0 z"},"+":{"x_min":0,"x_max":833,"ha":833,"o":"m 393 596 l 441 596 l 441 322 l 709 322 l 709 274 l 441 274 l 441 0 l 393 0 l 393 274 l 124 274 l 124 322 l 393 322 z"},"G":{"x_min":0,"x_max":669,"ha":669,"o":"m 539 37 l 489 53 q 443 19 388 1 q 334 -16 272 -16 q 161 -16 104 47 q 46 109 46 230 q 46 318 70 406 q 95 493 139 564 q 189 644 265 687 q 340 729 432 729 q 474 729 511 716 q 549 704 585 678 q 569 653 559 626 q 550 599 546 568 l 533 568 l 536 596 l 536 604 q 536 647 496 673 q 456 698 387 698 q 268 698 192 580 q 116 462 116 273 q 116 147 167 76 q 217 5 306 5 q 363 5 410 29 q 457 53 476 91 q 486 110 491 144 q 496 178 496 227 q 496 232 496 245 q 495 257 495 264 l 390 267 l 392 282 q 424 280 456 280 q 487 279 518 279 q 549 279 579 280 q 609 280 640 282 l 638 267 l 557 264 q 547 211 542 165 q 537 119 537 81 q 537 72 538 62 q 538 51 539 37 z"},"q":{"x_min":0,"x_max":488,"ha":488,"o":"m 305 114 q 247 53 191 20 q 134 -14 92 -14 q 53 -14 34 14 q 14 42 14 97 q 14 173 41 249 q 68 326 115 385 q 152 432 202 459 q 251 486 298 486 q 317 486 337 480 q 357 475 378 464 l 427 488 q 411 450 399 396 q 387 343 373 231 l 352 55 q 351 44 348 23 q 327 -148 327 -244 l 327 -265 l 413 -271 l 409 -287 q 376 -285 347 -283 q 318 -282 292 -282 q 265 -282 236 -283 q 207 -285 174 -287 l 179 -271 l 253 -265 q 266 -201 278 -112 q 290 -22 305 114 z m 328 277 l 337 365 q 337 368 338 374 q 338 380 338 399 q 338 429 321 443 q 304 457 268 457 q 240 457 213 443 q 187 429 163 401 q 126 358 104 290 q 83 221 83 144 q 83 86 98 57 q 113 28 144 28 q 167 28 197 45 q 227 63 260 96 q 290 125 305 165 q 320 205 328 277 z"},"d":{"x_min":0,"x_max":488,"ha":488,"o":"m 273 97 q 229 43 175 15 q 121 -14 66 -14 q 34 -14 20 3 q 7 21 7 62 q 7 152 33 238 q 60 323 105 379 q 147 431 195 458 q 243 486 290 486 q 298 486 307 485 q 316 483 326 481 l 346 646 q 348 659 348 672 q 349 684 349 694 q 349 717 344 725 q 338 732 323 732 q 312 732 269 726 l 266 725 l 265 740 q 305 747 345 755 q 385 764 427 774 q 383 522 358 336 q 332 149 332 92 q 332 55 341 41 q 350 28 374 28 q 388 28 402 32 q 417 37 434 46 l 441 32 q 393 9 360 -3 q 328 -14 309 -14 q 286 -14 277 -4 q 268 6 268 32 q 268 44 269 60 q 271 76 273 97 z m 296 261 l 311 374 q 314 393 315 410 q 317 427 317 435 q 317 454 309 459 q 302 465 277 465 q 245 465 215 448 q 186 431 161 398 q 125 349 101 264 q 78 179 78 90 q 78 55 90 39 q 102 23 128 23 q 147 23 169 33 q 190 43 213 63 q 247 92 266 137 q 285 182 296 261 z"},"1":{"x_min":0,"x_max":560,"ha":560,"o":"m 110 0 l 112 16 l 206 22 q 231 146 251 296 q 271 445 285 612 q 235 598 208 592 q 182 586 164 584 l 166 600 q 227 613 274 632 q 322 650 360 676 l 369 673 q 338 574 317 402 q 295 230 287 22 l 384 16 l 381 0 q 351 2 317 3 q 284 4 246 4 q 208 4 175 3 q 141 2 110 0 z"},"5":{"x_min":0,"x_max":560,"ha":560,"o":"m 51 96 l 49 57 q 69 38 95 28 q 120 18 150 18 q 188 18 227 33 q 266 48 296 75 q 337 110 358 156 q 379 202 379 254 q 379 327 342 370 q 305 414 244 414 q 222 414 202 408 q 182 402 163 389 l 144 398 q 171 506 181 560 q 191 614 191 645 q 191 653 191 657 q 190 661 190 664 q 209 663 233 663 q 256 662 304 662 q 351 662 399 664 q 447 665 497 668 l 478 615 q 413 610 350 608 q 288 606 227 606 q 216 570 204 527 q 192 485 176 419 q 211 435 240 443 q 269 450 295 450 q 363 450 405 408 q 447 365 447 296 q 447 235 413 176 q 379 116 316 66 q 268 28 213 6 q 159 -15 111 -15 q 84 -15 62 -10 q 39 -5 22 4 q 27 26 30 49 q 33 71 35 96 z"}}}
